<svg xmlns="http://www.w3.org/2000/svg" width="1920" zoomAndPan="magnify" viewBox="0 0 1440 810" height="1080" preserveAspectRatio="xMidYMid meet" xmlns:v="https://vecta.io/nano"><defs><clipPath id="A"><path d="M164.105 178.93h139.039v139.039H164.105zm0 0" clip-rule="nonzero"/></clipPath><clipPath id="B"><path d="M193.758 341.113h65.43V476h-65.43zm0 0" clip-rule="nonzero"/></clipPath><clipPath id="C"><path d="M164.105 499.656h130.859v130.859H164.105zm0 0" clip-rule="nonzero"/></clipPath><path id="D" d="M496.414 230.576c3.414 0 6.129.969 8.141 2.906 2.02 1.93 3.086 4.48 3.203 7.656v26.188h-7.922v-23.281c-.18-4.145-2.059-6.332-5.641-6.562a8.93 8.93 0 0 0-5.5 1.828c-1.617 1.219-2.883 2.824-3.797 4.813-.906 1.992-1.387 4.125-1.437 6.406v16.797h-8.016v-23.281c-.18-4.145-2.117-6.332-5.812-6.562-1.992 0-3.797.609-5.422 1.828-1.617 1.219-2.875 2.84-3.781 4.859s-1.359 4.168-1.359 6.438v16.719h-7.937v-35.312h7.172l.594 6.656c1.363-2.551 3.223-4.535 5.578-5.953 2.363-1.426 5.051-2.141 8.063-2.141 2.844 0 5.227.668 7.156 2 1.938 1.336 3.191 3.168 3.766 5.5 1.477-2.332 3.352-4.164 5.625-5.5a14.23 14.23 0 0 1 7.328-2zm0 0"/><path id="E" d="M529.405 232.014v35.313h-7.937v-35.312zm-8.531-12.703c0-1.25.477-2.297 1.438-3.141.969-.852 2.078-1.281 3.328-1.281 1.258 0 2.359.43 3.297 1.281a4.05 4.05 0 0 1 1.406 3.141 4.11 4.11 0 0 1-1.406 3.172c-.937.844-2.039 1.266-3.297 1.266a4.92 4.92 0 0 1-3.328-1.266c-.961-.852-1.437-1.91-1.437-3.172zm0 0"/><path id="F" d="M565.129 230.654c3.289 0 6.016.984 8.172 2.953 2.164 1.961 3.281 4.5 3.344 7.625v26.094h-8.016v-23.359c-.117-2-.715-3.566-1.797-4.703s-2.703-1.727-4.859-1.781c-3.125 0-5.715 1.25-7.766 3.75-2.043 2.5-3.062 5.684-3.062 9.547v16.547h-7.937v-35.312h7.172l.5 6.828c1.25-2.562 3.125-4.566 5.625-6.016 2.508-1.445 5.383-2.172 8.625-2.172zm0 0"/><path id="G" d="M687.895 268.092c-2.617 0-5.105-.453-7.469-1.359-2.355-.914-4.273-2.254-5.75-4.016l3.406-4.594c1.414 1.367 2.906 2.418 4.469 3.156 1.57.73 3.125 1.094 4.656 1.094 1.875 0 3.406-.363 4.594-1.094 1.195-.738 1.797-1.879 1.797-3.422 0-1.187-.371-2.148-1.109-2.891s-1.578-1.281-2.516-1.625l-4.734-1.531c-6.023-1.937-9.031-5.379-9.031-10.328 0-2.957 1.094-5.484 3.281-7.578 2.188-2.102 5.242-3.156 9.172-3.156 2.5 0 4.711.313 6.641.938 1.938.625 3.727 1.621 5.375 2.984l-3.156 4.859c-.906-.969-2.059-1.734-3.453-2.297-1.387-.57-2.703-.891-3.953-.953-1.594 0-2.965.387-4.109 1.156-1.137.773-1.703 1.809-1.703 3.109 0 1.086.367 1.98 1.109 2.688s1.504 1.219 2.297 1.531c.801.313 2.367.84 4.703 1.578 2.895.969 5.148 2.227 6.766 3.766 1.625 1.531 2.438 3.605 2.438 6.219 0 3.406-1.195 6.219-3.578 8.438s-5.766 3.328-10.141 3.328zm0 0"/><path id="H" d="M372.175 394.364v35.219h-7.922v-5.781c-1.242 1.648-3.055 3.164-5.437 4.547s-5.078 2.078-8.078 2.078c-3.344 0-6.367-.719-9.062-2.156-2.699-1.445-4.828-3.562-6.391-6.344-1.555-2.781-2.328-6.098-2.328-9.953s.805-7.211 2.422-10.078 3.797-5.07 6.547-6.625c2.75-1.562 5.801-2.344 9.156-2.344 3 0 5.602.652 7.813 1.953 2.219 1.305 4.004 3 5.359 5.094l.594-5.609zm-19.312 29.516c2.895 0 5.375-.805 7.438-2.422 2.07-1.613 3.391-3.812 3.953-6.594v-6.969c-.68-2.5-2.094-4.523-4.25-6.078-2.156-1.562-4.621-2.344-7.391-2.344-2.105 0-4.055.512-5.844 1.531a11.31 11.31 0 0 0-4.25 4.297c-1.043 1.844-1.562 3.93-1.562 6.25 0 2.273.535 4.344 1.609 6.219 1.082 1.867 2.531 3.352 4.344 4.453s3.797 1.656 5.953 1.656zm0 0"/><path id="I" d="M414.519 426.271c-1.586 1.305-3.469 2.324-5.656 3.063-2.18.727-4.402 1.094-6.672 1.094-3.805 0-7.168-.766-10.094-2.297-2.918-1.531-5.184-3.695-6.797-6.5s-2.422-6.047-2.422-9.734c0-3.633.848-6.852 2.547-9.656 1.707-2.812 3.977-4.984 6.813-6.516s5.895-2.297 9.188-2.297c5.383 0 9.832 1.477 13.344 4.422l-3.984 5.188c-1.137-.844-2.445-1.562-3.922-2.156-1.469-.602-3.059-.906-4.766-.906-2.094 0-4.008.527-5.734 1.578a11.36 11.36 0 0 0-4.094 4.297c-.992 1.813-1.484 3.828-1.484 6.047 0 2.211.523 4.219 1.578 6.031a11.99 11.99 0 0 0 4.297 4.344c1.813 1.074 3.879 1.609 6.203 1.609 2.895 0 5.422-.848 7.578-2.547zm0 0"/><path id="J" d="M516.315 411.63c0-3.457.832-6.617 2.5-9.484 1.676-2.863 4.004-5.113 6.984-6.75 2.977-1.645 6.336-2.469 10.078-2.469s7.066.824 9.984 2.469c2.926 1.637 5.195 3.875 6.813 6.719 1.613 2.836 2.422 6.008 2.422 9.516 0 3.523-.809 6.715-2.422 9.578s-3.898 5.121-6.844 6.766c-2.949 1.633-6.324 2.453-10.125 2.453-3.687 0-7.008-.777-9.953-2.328-2.949-1.562-5.262-3.758-6.937-6.594-1.668-2.832-2.5-6.125-2.5-9.875zm8 .094c0 2.211.492 4.25 1.484 6.125.988 1.867 2.348 3.34 4.078 4.422 1.727 1.074 3.645 1.609 5.75 1.609 3.289 0 6.008-1.16 8.156-3.484 2.156-2.32 3.234-5.211 3.234-8.672s-1.078-6.363-3.234-8.719c-2.148-2.352-4.867-3.531-8.156-3.531-2.156 0-4.09.555-5.797 1.656-1.699 1.105-3.043 2.594-4.031 4.469-.992 1.867-1.484 3.906-1.484 6.125zm0 0"/><path id="K" d="M624.578 412.661l-4.594 3.734v13.188h-7.906v-65.922h7.906v44.484l18.203-14.625 4.859 4.25-13.016 10.469 14.703 21.344h-9.266zm0 0"/><path id="L" d="M650.516 425.067c0-1.238.453-2.312 1.359-3.219.906-.914 1.957-1.375 3.156-1.375 1.07 0 2.078.461 3.016 1.375.938.906 1.406 1.98 1.406 3.219 0 1.313-.453 2.398-1.359 3.25-.906.844-1.93 1.266-3.062 1.266-1.199 0-2.25-.422-3.156-1.266-.906-.852-1.359-1.937-1.359-3.25zm0 0"/><path id="M" d="M799.192 392.927c3.395 0 6.098.965 8.109 2.891 2.02 1.93 3.086 4.48 3.203 7.656v26.109h-7.922v-23.219c-.168-4.145-2.039-6.328-5.609-6.547-2.043 0-3.871.609-5.484 1.828s-2.875 2.824-3.781 4.813c-.906 1.98-1.391 4.105-1.453 6.375v16.75h-7.984v-23.219c-.18-4.145-2.109-6.328-5.797-6.547-1.98 0-3.781.609-5.406 1.828-1.617 1.219-2.875 2.836-3.781 4.844s-1.359 4.152-1.359 6.422v16.672h-7.906v-35.219h7.141l.594 6.641c1.363-2.551 3.223-4.535 5.578-5.953s5.031-2.125 8.031-2.125c2.844 0 5.227.668 7.156 2s3.172 3.164 3.734 5.484c1.477-2.32 3.348-4.148 5.609-5.484a14.23 14.23 0 0 1 7.328-2zm0 0"/><path id="N" d="M825.964 431.192h-7.219l15.984-43.375 8-21.687h7.219zm0 0"/><path id="O" d="M890.691 379.052c-2.211-1.187-4.562-2.148-7.062-2.891-2.492-.738-4.84-1.109-7.047-1.109-3.355 0-6.012.758-7.969 2.266-1.949 1.5-2.922 3.555-2.922 6.156 0 2.555 1.145 4.641 3.438 6.266 2.301 1.617 5.578 3.215 9.828 4.797 3.176 1.137 5.852 2.371 8.031 3.703 2.188 1.336 4.004 3.18 5.453 5.531s2.172 5.344 2.172 8.969c0 3.293-.824 6.273-2.469 8.938s-3.992 4.766-7.031 6.297c-3.031 1.531-6.59 2.297-10.672 2.297-3.793 0-7.449-.609-10.969-1.828-3.512-1.227-6.602-2.773-9.266-4.641l3.656-6.547c2.094 1.586 4.613 2.93 7.563 4.031s5.695 1.656 8.25 1.656c3.289 0 6.172-.848 8.641-2.547s3.703-4.219 3.703-7.562c0-2.844-1.039-5.098-3.109-6.766-2.074-1.676-4.98-3.25-8.719-4.719-3.461-1.312-6.34-2.586-8.641-3.828-2.293-1.25-4.262-2.961-5.906-5.141-1.648-2.187-2.469-4.926-2.469-8.219 0-4.82 1.688-8.719 5.063-11.687 3.375-2.977 7.754-4.555 13.141-4.734 6.633 0 12.789 1.648 18.469 4.938zm0 0"/><path id="P" d="M914.328 394.364v35.219h-7.906v-35.219zm-8.5-12.672c0-1.238.477-2.285 1.438-3.141.969-.852 2.078-1.281 3.328-1.281s2.336.43 3.266 1.281c.938.855 1.406 1.902 1.406 3.141 0 1.25-.469 2.305-1.406 3.156a4.66 4.66 0 0 1-3.266 1.281c-1.25 0-2.359-.426-3.328-1.281-.961-.852-1.437-1.906-1.437-3.156zm0 0"/><path id="Q" d="M949.968 393.005c3.289 0 6.016.98 8.172 2.938s3.258 4.496 3.313 7.609v26.031h-8v-23.312c-.117-1.977-.711-3.535-1.781-4.672s-2.687-1.727-4.844-1.781c-3.125 0-5.711 1.25-7.75 3.75-2.043 2.492-3.062 5.664-3.062 9.516v16.5h-7.906v-35.219h7.141l.516 6.813c1.25-2.551 3.117-4.551 5.609-6 2.5-1.445 5.363-2.172 8.594-2.172zm0 0"/><path id="R" d="M1027.53 430.349c-2.617 0-5.102-.453-7.453-1.359-2.344-.906-4.258-2.238-5.734-4l3.406-4.594c1.414 1.367 2.898 2.418 4.453 3.156 1.563.73 3.109 1.094 4.641 1.094 1.875 0 3.406-.363 4.594-1.094 1.195-.738 1.797-1.875 1.797-3.406 0-1.195-.371-2.16-1.109-2.891-.742-.738-1.578-1.273-2.516-1.609l-4.719-1.547c-6.012-1.926-9.016-5.359-9.016-10.297 0-2.945 1.086-5.469 3.266-7.562 2.188-2.094 5.238-3.141 9.156-3.141 2.488 0 4.695.313 6.625.938 1.938.617 3.727 1.605 5.375 2.969l-3.156 4.844c-.906-.957-2.059-1.719-3.453-2.281-1.387-.57-2.703-.891-3.953-.953-1.586 0-2.945.387-4.078 1.156-1.137.762-1.703 1.797-1.703 3.109 0 1.074.367 1.965 1.109 2.672s1.504 1.219 2.297 1.531 2.348.84 4.672 1.578c2.895.961 5.148 2.203 6.766 3.734s2.422 3.605 2.422 6.219c0 3.398-1.195 6.203-3.578 8.422-2.375 2.211-5.746 3.313-10.109 3.313zm0 0"/><path id="S" d="M1088.088 429.583l-14.469-22.719c-.449.063-1.125.094-2.031.094h-9.109v22.625h-8.25v-61.5h16.422c4.195 0 7.938.742 11.219 2.219 3.289 1.469 5.875 3.637 7.75 6.5s2.813 6.309 2.813 10.328c0 3.805-.84 7.293-2.516 10.469s-4.246 5.59-7.703 7.234l15.484 24.75zm-16.672-30.625c4.414 0 7.602-1.16 9.563-3.484a12.05 12.05 0 0 0 2.938-8c0-1.812-.414-3.598-1.234-5.359s-2.133-3.219-3.922-4.375c-1.781-1.164-4.031-1.75-6.75-1.75h-9.531v22.969zm0 0"/><path id="T" d="M1117.844 407.802c0 2.73.648 5.188 1.953 7.375 1.313 2.18 3.086 3.906 5.328 5.188 2.238 1.273 4.719 1.906 7.438 1.906 2.832 0 5.395-.625 7.688-1.875 2.301-1.25 4.102-2.977 5.406-5.187 1.313-2.207 1.969-4.676 1.969-7.406v-39.719h8.078v39.984c0 4.367-1.023 8.234-3.062 11.609a20.91 20.91 0 0 1-8.344 7.828c-3.512 1.844-7.422 2.766-11.734 2.766-4.25 0-8.137-.922-11.656-2.766-3.512-1.844-6.277-4.453-8.297-7.828-2.012-3.375-3.016-7.242-3.016-11.609v-39.984h8.25zm0 0"/></defs><path fill="#fff" d="M-144-81h1728v972H-144z"/><path fill="#363636" d="M-144-81h1728v972H-144z"/><g clip-path="url(#A)"><path fill="#fff" d="M234.168 178.93c-38.695 0-70.062 31.367-70.062 70.063s31.367 70.063 70.063 70.063 70.063-31.367 70.063-70.062-31.367-70.062-70.063-70.062zm-42.703 36.551h85.316c.211 0 .359.098.438.297s.043.367-.113.516l-28.68 27.219-.047.047-8.562 8.129c-.41.387-.852.734-1.328 1.043a9.06 9.06 0 0 1-1.5.77c-.527.207-1.066.363-1.621.469a8.68 8.68 0 0 1-1.684.152c-.562-.004-1.121-.059-1.676-.168a8.97 8.97 0 0 1-1.617-.488 8.65 8.65 0 0 1-1.492-.789c-.473-.309-.914-.66-1.316-1.055l-7.93-7.687-.039-.039-28.477-27.605a.43.43 0 0 1-.109-.516c.078-.195.227-.293.438-.293zm-4.02 62.316v-58.551c0-.207.094-.352.285-.434s.363-.051.512.094l27.063 26.238a.44.44 0 0 1 .141.313c.008.125-.027.234-.109.328l-27.059 32.316c-.141.168-.316.215-.523.141s-.312-.223-.309-.445zm90.215 4.707h-86.984c-.199 0-.34-.09-.426-.27s-.062-.352.066-.504l27.781-33.176a.46.46 0 0 1 .336-.168c.137-.004.254.039.352.133l6.078 5.895a12.53 12.53 0 0 0 4.051 2.652c1.52.621 3.102.934 4.746.941h.07a12.61 12.61 0 0 0 4.719-.906 12.48 12.48 0 0 0 4.043-2.594l6.727-6.387a.46.46 0 0 1 .352-.129c.137.008.25.063.336.168l28.113 33.57c.129.152.148.32.066.5s-.227.273-.426.273zm3.23-4.707a.43.43 0 0 1-.309.441c-.207.078-.383.031-.523-.141l-27.359-32.668c-.078-.094-.113-.207-.109-.328s.059-.23.148-.316l27.359-25.965c.148-.141.32-.172.508-.09s.285.227.285.434zm0 0"/></g><g fill="#fff"><path d="M386.781 232.014v35.313h-7.937v-5.797c-1.25 1.648-3.07 3.168-5.453 4.563s-5.09 2.094-8.109 2.094c-3.355 0-6.383-.727-9.078-2.172-2.699-1.457-4.828-3.578-6.391-6.359-1.562-2.789-2.344-6.117-2.344-9.984s.805-7.227 2.422-10.094c1.625-2.875 3.813-5.094 6.563-6.656 2.758-1.562 5.816-2.344 9.172-2.344 3.008 0 5.625.656 7.844 1.969 2.219 1.305 4.008 3.008 5.375 5.109l.594-5.641zm-19.359 29.594c2.895 0 5.379-.805 7.453-2.422 2.082-1.625 3.406-3.828 3.969-6.609v-7c-.68-2.5-2.102-4.531-4.266-6.094-2.156-1.562-4.633-2.344-7.422-2.344-2.105 0-4.055.512-5.844 1.531-1.781 1.023-3.199 2.461-4.25 4.313-1.055 1.844-1.578 3.934-1.578 6.266 0 2.273.535 4.344 1.609 6.219 1.082 1.875 2.531 3.371 4.344 4.484 1.82 1.105 3.816 1.656 5.984 1.656zm69.997-60.376v66.094h-8.016v-5.547c-1.711 1.992-3.805 3.559-6.281 4.703-2.469 1.133-5.184 1.703-8.141 1.703-3.293 0-6.277-.797-8.953-2.391-2.668-1.594-4.758-3.82-6.266-6.687-1.5-2.875-2.25-6.191-2.25-9.953 0-3.801.789-7.109 2.375-9.922 1.594-2.82 3.781-4.969 6.563-6.437 2.789-1.477 5.953-2.219 9.484-2.219 2.664 0 5.234.555 7.703 1.656 2.477 1.105 4.426 2.625 5.844 4.563v-35.562zm-19.953 60.125c3.07 0 5.672-.82 7.797-2.469 2.133-1.656 3.516-3.875 4.141-6.656v-6.656c-.687-2.551-2.141-4.641-4.359-6.266-2.211-1.625-4.734-2.437-7.578-2.437-2.168 0-4.164.527-5.984 1.578a11.89 11.89 0 0 0-4.344 4.359c-1.074 1.844-1.609 3.934-1.609 6.266 0 2.273.535 4.352 1.609 6.234 1.082 1.875 2.531 3.355 4.344 4.438 1.82 1.074 3.816 1.609 5.984 1.609zm0 0"/><use href="#D"/><use href="#E"/><use href="#F"/><path d="M634.197 212.326c6.707 0 12.563 1.324 17.563 3.969 5 2.637 8.832 6.23 11.5 10.781 2.676 4.543 4.016 9.656 4.016 15.344 0 4.555-.898 8.793-2.687 12.719-1.793 3.918-4.281 7.059-7.469 9.422a17.58 17.58 0 0 1-10.734 3.531c-2.562 0-4.699-.668-6.406-2-1.699-1.332-2.805-3.195-3.312-5.594-1.824 2.105-4.102 3.914-6.828 5.422s-5.484 2.266-8.266 2.266c-3.125 0-5.93-.668-8.406-2-2.469-1.344-4.387-3.25-5.75-5.719-1.367-2.477-2.023-5.363-1.969-8.656 0-3.926.863-7.508 2.594-10.75 1.738-3.238 4.156-5.797 7.25-7.672 3.102-1.875 6.617-2.812 10.547-2.812 6.414 0 10.766 2.527 13.047 7.578l1.531-6.141h7.5l-3.156 22.953c-.055.336-.078.844-.078 1.531 0 2.844 1.191 4.266 3.578 4.266 1.938 0 3.785-.82 5.547-2.469 1.758-1.656 3.191-3.891 4.297-6.703 1.113-2.812 1.672-5.867 1.672-9.172 0-4.426-1.055-8.445-3.156-12.062s-5.18-6.473-9.219-8.578c-4.031-2.102-8.836-3.156-14.406-3.156-9.273 0-16.777 1.98-22.516 5.938-5.742 3.949-9.836 8.609-12.281 13.984-2.437 5.375-3.656 10.277-3.656 14.703 0 5.867 1.16 10.789 3.484 14.766 2.332 3.977 5.547 6.93 9.641 8.859 4.094 1.938 8.844 2.906 14.25 2.906 6.414 0 12.723-1.934 18.922-5.797l3.328 4.594c-3.187 2.445-6.871 4.297-11.047 5.547s-8.312 1.875-12.406 1.875c-6.367 0-12.062-1.227-17.094-3.672-5.031-2.437-9.012-6.09-11.937-10.953-2.93-4.852-4.391-10.781-4.391-17.781 0-6.312 1.645-12.633 4.938-18.969 3.301-6.344 8.473-11.645 15.516-15.906 7.051-4.258 15.867-6.391 26.453-6.391zm-9.562 49.281a12.3 12.3 0 0 0 7.422-2.422c2.219-1.625 3.813-3.828 4.781-6.609l.938-7c-.293-2.5-1.434-4.531-3.422-6.094s-4.434-2.344-7.328-2.344c-2.387 0-4.574.625-6.562 1.875s-3.586 2.93-4.781 5.031c-1.187 2.105-1.781 4.352-1.781 6.734 0 3.125.992 5.715 2.984 7.766 1.988 2.043 4.57 3.063 7.75 3.063zm0 0"/><use href="#G"/><use href="#E" x="191.227"/><use href="#F" x="191.227"/><path d="M794.112 250.357l-4.594 3.75v13.219h-7.937v-66.094h7.938v44.609l18.25-14.672 4.859 4.266-13.047 10.484 14.75 21.406h-9.297zm0 0"/><use href="#G" x="146.212"/><path d="M866.578 240.373c.914-1.926 2.211-3.629 3.891-5.109s3.453-2.613 5.328-3.406c1.875-.801 3.52-1.227 4.938-1.281l-.328 7.922c-2.562-.113-4.887.402-6.969 1.547a12.34 12.34 0 0 0-4.859 4.734c-1.156 2.012-1.734 4.152-1.734 6.422v16.125h-7.937v-35.312h7.078zm57.212-8.359v35.313h-7.156l-.516-6.734c-1.187 2.387-3.039 4.336-5.547 5.844-2.5 1.5-5.281 2.25-8.344 2.25-3.25 0-5.914-.98-7.984-2.937s-3.168-4.5-3.281-7.625v-26.109h7.938v23.281c.113 1.992.695 3.57 1.75 4.734s2.625 1.781 4.719 1.844a8.75 8.75 0 0 0 5.297-1.75c1.594-1.164 2.859-2.77 3.797-4.812.938-2.051 1.406-4.328 1.406-6.828v-16.469zm0 0"/><use href="#G" x="259.687"/><path d="M968.381 262.81c0-1.25.453-2.328 1.359-3.234.906-.914 1.957-1.375 3.156-1.375 1.082 0 2.094.461 3.031 1.375.938.906 1.406 1.984 1.406 3.234 0 1.305-.461 2.383-1.375 3.234-.906.855-1.93 1.281-3.062 1.281-1.199 0-2.25-.426-3.156-1.281s-1.359-1.93-1.359-3.234zm47.065 1.188c-1.594 1.313-3.484 2.34-5.672 3.078a20.79 20.79 0 0 1-6.687 1.109c-3.812 0-7.184-.766-10.109-2.297-2.93-1.539-5.203-3.719-6.828-6.531-1.617-2.812-2.422-6.066-2.422-9.766 0-3.645.848-6.875 2.547-9.687 1.707-2.812 3.984-4.984 6.828-6.516 2.844-1.539 5.91-2.312 9.203-2.312 5.406 0 9.867 1.48 13.391 4.438l-4 5.203c-1.137-.852-2.445-1.578-3.922-2.172s-3.074-.891-4.781-.891c-2.105 0-4.027.527-5.766 1.578a11.35 11.35 0 0 0-4.094 4.313c-.992 1.813-1.484 3.828-1.484 6.047s.523 4.242 1.578 6.063a11.99 11.99 0 0 0 4.297 4.344c1.82 1.074 3.898 1.609 6.234 1.609 2.906 0 5.438-.848 7.594-2.547zm7.157-14.672c0-3.469.836-6.633 2.516-9.5 1.676-2.875 4.004-5.133 6.984-6.781 2.988-1.645 6.359-2.469 10.109-2.469s7.086.824 10.016 2.469 5.195 3.891 6.813 6.734c1.625 2.844 2.438 6.027 2.438 9.547 0 3.531-.812 6.734-2.437 9.609-1.617 2.867-3.902 5.125-6.859 6.781-2.949 1.645-6.328 2.469-10.141 2.469-3.699 0-7.027-.781-9.984-2.344-2.949-1.57-5.262-3.773-6.937-6.609-1.68-2.844-2.516-6.145-2.516-9.906zm8.016.094c0 2.219.492 4.266 1.484 6.141 1 1.875 2.363 3.355 4.094 4.438 1.738 1.074 3.66 1.609 5.766 1.609 3.289 0 6.016-1.16 8.172-3.484 2.164-2.332 3.25-5.234 3.25-8.703s-1.086-6.379-3.25-8.734c-2.156-2.363-4.883-3.547-8.172-3.547-2.168 0-4.105.559-5.812 1.672-1.699 1.105-3.047 2.594-4.047 4.469-.992 1.875-1.484 3.922-1.484 6.141zm0 0"/><use href="#D" x="620.997"/></g><g clip-path="url(#B)"><path fill="#fff" d="M244.094 363.477h15.094v-22.187h-19.273v.086c-25.344.906-30.566 14.746-31.004 29.375h-.059v15.395h-15.094v22.219h15.094v67.523h27.086v-67.523h19.418l3.832-22.219h-23.25v-13.781c0-4.895 3.367-8.887 8.156-8.887zm0 0"/></g><g fill="#edf0f2"><path d="M306.592 401.427h-6.031v-7.141h6.031v-14.812c0-5.094 1.16-9 3.484-11.719 2.32-2.727 5.727-4.094 10.219-4.094 1.238 0 2.566.188 3.984.563 1.426.367 2.676.887 3.75 1.563l-3.406 5.781c-.844-.906-2.031-1.359-3.562-1.359-2.156 0-3.793.742-4.906 2.219-1.105 1.469-1.656 3.852-1.656 7.141v14.719h11.234v7.141h-11.234v28.156h-7.906zm0 0"/><use href="#H"/><use href="#I"/><path d="M441.222 423.63c2.945 0 5.813-1.02 8.594-3.062l3.656 5.875a24.76 24.76 0 0 1-6.094 2.922c-2.18.707-4.289 1.063-6.328 1.063-3.906 0-7.324-.809-10.25-2.422-2.918-1.613-5.172-3.836-6.766-6.672-1.586-2.832-2.375-6.035-2.375-9.609 0-3.457.863-6.617 2.594-9.484s4.094-5.129 7.094-6.797c3.008-1.676 6.301-2.516 9.875-2.516 4.594 0 8.43 1.352 11.516 4.047 3.094 2.688 5.207 6.445 6.344 11.266l-27.891 9.781a11.18 11.18 0 0 0 4.125 4.125c1.727.992 3.695 1.484 5.906 1.484zm-.594-24.422c-3.23 0-5.898 1.137-8 3.406-2.094 2.273-3.141 5.168-3.141 8.688 0 .844.023 1.496.078 1.953l20.5-7.578c-.844-1.926-2.047-3.484-3.609-4.672-1.562-1.195-3.508-1.797-5.828-1.797zm50.865-6.281c3.164 0 6.066.766 8.703 2.297 2.645 1.531 4.734 3.688 6.266 6.469 1.531 2.773 2.297 6 2.297 9.688 0 3.855-.824 7.23-2.469 10.125-1.648 2.887-3.875 5.094-6.687 6.625-2.805 1.531-5.852 2.297-9.141 2.297-2.887 0-5.508-.562-7.859-1.687-2.355-1.133-4.273-2.664-5.75-4.594v5.438h-7.906v-65.922h7.906v35.391c1.477-1.875 3.504-3.363 6.078-4.469 2.582-1.102 5.438-1.656 8.563-1.656zm-2.734 30.703c3.469 0 6.32-1.16 8.563-3.484s3.359-5.242 3.359-8.766c0-2.27-.527-4.328-1.578-6.172a11.81 11.81 0 0 0-4.297-4.375c-1.812-1.082-3.828-1.625-6.047-1.625-2.887 0-5.422.781-7.609 2.344a10.87 10.87 0 0 0-4.297 6.172v7.141c.688 2.555 2.102 4.652 4.25 6.297 2.156 1.648 4.707 2.469 7.656 2.469zm0 0"/><use href="#J"/><use href="#J" x="46.35"/><use href="#K"/><use href="#L"/><use href="#I" x="282.948"/><use href="#J" x="188.292"/><use href="#M"/><use href="#N"/><use href="#O"/><use href="#P"/><use href="#Q"/><use href="#K" x="363.062"/><use href="#R"/><use href="#S"/><use href="#T"/><use href="#R" x="153.083"/></g><g clip-path="url(#C)"><path fill="#fff" d="M263.594 631.027H196.34c-17.773 0-32.059-14.285-32.059-32.059v-67.254c0-17.773 14.285-32.059 32.059-32.059h66.902c17.773 0 32.059 14.285 32.059 32.059v66.906c0 17.77-14.285 32.059-32.059 32.059zM196.34 510.109c-11.848 0-21.605 9.758-21.605 21.605v66.906c0 11.848 9.758 21.605 21.605 21.605h66.902c11.848 0 21.605-9.758 21.605-21.605v-66.906c0-11.848-9.758-21.605-21.605-21.605zm0 0"/></g><path d="M230.141 607.68c-23 0-41.469-18.469-41.469-41.465a41.35 41.35 0 0 1 41.469-41.469c23 0 41.465 18.469 41.465 41.469a41.34 41.34 0 0 1-41.465 41.465zm0-72.828a31.23 31.23 0 0 0-31.363 31.363c0 17.422 13.938 31.359 31.363 31.359s31.359-13.937 31.359-31.359a31.23 31.23 0 0 0-31.359-31.363zm0 50.179c-10.453 0-18.816-8.363-18.816-18.816a18.817 18.817 0 1 1 37.633 0c0 10.453-8.363 18.816-18.816 18.816zm0-27.18c-4.531 0-8.363 3.832-8.363 8.363s3.832 8.359 8.363 8.359 8.363-3.832 8.363-8.359-3.836-8.363-8.363-8.363zm44.949-30.667c0 .457-.043.91-.133 1.359a7.22 7.22 0 0 1-.395 1.309 7.18 7.18 0 0 1-.645 1.207c-.254.383-.543.73-.867 1.055a6.94 6.94 0 0 1-1.055.867c-.379.254-.785.469-1.207.645a7.22 7.22 0 0 1-1.309.395c-.449.09-.902.133-1.359.133s-.91-.043-1.359-.133a7.18 7.18 0 0 1-1.305-.395 6.88 6.88 0 0 1-1.207-.645 7.05 7.05 0 0 1-1.055-.867 6.94 6.94 0 0 1-.867-1.055c-.254-.379-.469-.785-.645-1.207s-.309-.859-.398-1.309a6.98 6.98 0 0 1-.133-1.359c0-.457.047-.91.133-1.359a6.69 6.69 0 0 1 .398-1.305c.175-.422.391-.824.645-1.207s.543-.73.867-1.055a6.94 6.94 0 0 1 1.055-.867 6.88 6.88 0 0 1 1.207-.645c.426-.176.855-.309 1.305-.398a6.98 6.98 0 0 1 1.359-.133c.457 0 .91.047 1.359.133s.887.223 1.309.398.824.391 1.207.645.73.543 1.055.867a6.94 6.94 0 0 1 .867 1.055 6.88 6.88 0 0 1 .645 1.207 7.18 7.18 0 0 1 .395 1.305c.09.449.133.902.133 1.359zm0 0" fill="#fff"/><g fill="#edf0f2"><use href="#P" x="-561.587" y="154.182"/><use href="#Q" x="-561.588" y="154.182"/><use href="#R" x="-604.025" y="154.182"/><path d="M459.641 533.062v15.578h9.625v6.281h-9.625v28.844h-7.984v-28.844h-6.469v-6.281h6.469v-15.578zm0 0"/><use href="#H" x="142.848" y="154.182"/><path d="M565.961 548.546v35.469c0 3.238-.824 6.16-2.469 8.766s-3.984 4.672-7.016 6.203-6.59 2.297-10.672 2.297c-3.574 0-6.652-.594-9.234-1.781s-5.18-2.945-7.781-5.266l4.672-5.453c1.926 1.813 3.852 3.188 5.781 4.125 1.938.938 4.066 1.406 6.391 1.406 3.914 0 6.938-.937 9.063-2.812 2.125-1.867 3.211-4.387 3.266-7.562l.094-6.641c-1.312 2.219-3.23 3.996-5.75 5.328-2.523 1.32-5.43 1.984-8.719 1.984-3.23 0-6.211-.82-8.937-2.453-2.719-1.645-4.887-3.883-6.5-6.719-1.617-2.844-2.422-5.992-2.422-9.453 0-3.57.832-6.789 2.5-9.656a18.36 18.36 0 0 1 6.766-6.75c2.844-1.645 5.879-2.469 9.109-2.469 3 0 5.773.594 8.328 1.781s4.453 2.719 5.703 4.594l.594-4.937zm-20.078 29.516c3.008 0 5.617-.82 7.828-2.469s3.656-3.797 4.344-6.453v-6.984c-.805-2.551-2.309-4.602-4.516-6.156-2.211-1.562-4.762-2.344-7.656-2.344-3.461 0-6.352 1.137-8.672 3.406-2.324 2.262-3.484 5.152-3.484 8.672 0 2.273.535 4.344 1.609 6.219 1.082 1.867 2.555 3.352 4.422 4.453a11.84 11.84 0 0 0 6.125 1.656zm41.505-21.172c.906-1.926 2.191-3.625 3.859-5.094 1.676-1.477 3.453-2.613 5.328-3.406 1.875-.801 3.52-1.227 4.938-1.281l-.344 7.906c-2.555-.113-4.867.398-6.937 1.531s-3.695 2.711-4.859 4.719c-1.156 2.012-1.734 4.152-1.734 6.422v16.078h-7.906v-35.219h7.063zm0 0"/><use href="#H" x="275.69" y="154.182"/><use href="#M" x="-92.389" y="154.182"/><use href="#L" x="77.278" y="154.182"/><use href="#I" x="360.226" y="154.182"/><use href="#J" x="265.57" y="154.182"/><use href="#M" x="77.278" y="154.182"/><use href="#N" x="77.278" y="154.182"/><use href="#O" x="77.277" y="154.182"/><path d="M991.606 548.546v35.219H983.7v-35.219zm-8.5-12.672c0-1.238.477-2.285 1.438-3.141.969-.852 2.078-1.281 3.328-1.281s2.336.43 3.266 1.281c.938.855 1.406 1.902 1.406 3.141 0 1.25-.469 2.305-1.406 3.156a4.66 4.66 0 0 1-3.266 1.281c-1.25 0-2.359-.426-3.328-1.281-.961-.852-1.437-1.906-1.437-3.156zm0 0"/><use href="#Q" x="77.278" y="154.182"/><use href="#K" x="440.339" y="154.182"/><use href="#R" x="77.278" y="154.182"/><use href="#S" x="77.278" y="154.182"/><use href="#T" x="77.277" y="154.182"/><use href="#R" x="230.361" y="154.182"/></g></svg>