<svg xmlns="http://www.w3.org/2000/svg" xmlns:xlink="http://www.w3.org/1999/xlink" width="100" zoomAndPan="magnify" viewBox="0 0 75 37.5" height="50" preserveAspectRatio="xMidYMid meet" version="1.0"><defs><g/><clipPath id="f2def030b7"><path d="M 3.773438 8.304688 L 25.234375 8.304688 L 25.234375 29.769531 L 3.773438 29.769531 Z M 3.773438 8.304688 " clip-rule="nonzero"/></clipPath></defs><g fill="#000000" fill-opacity="1"><g transform="translate(28.505915, 22.596128)"><g><path d="M 4.265625 0 L 2.703125 -2.71875 L 1.84375 -2.71875 L 1.84375 0 L 0.734375 0 L 0.734375 -6.78125 L 3.078125 -6.78125 C 3.597656 -6.78125 4.035156 -6.6875 4.390625 -6.5 C 4.753906 -6.320312 5.023438 -6.082031 5.203125 -5.78125 C 5.390625 -5.476562 5.484375 -5.132812 5.484375 -4.75 C 5.484375 -4.3125 5.351562 -3.910156 5.09375 -3.546875 C 4.832031 -3.191406 4.4375 -2.945312 3.90625 -2.8125 L 5.59375 0 Z M 1.84375 -3.609375 L 3.078125 -3.609375 C 3.492188 -3.609375 3.804688 -3.710938 4.015625 -3.921875 C 4.234375 -4.128906 4.34375 -4.40625 4.34375 -4.75 C 4.34375 -5.101562 4.238281 -5.378906 4.03125 -5.578125 C 3.820312 -5.773438 3.503906 -5.875 3.078125 -5.875 L 1.84375 -5.875 Z M 1.84375 -3.609375 "/></g></g></g><g fill="#000000" fill-opacity="1"><g transform="translate(33.720873, 22.596128)"><g/></g></g><g fill="#000000" fill-opacity="1"><g transform="translate(35.302849, 22.596128)"><g><path d="M 1.84375 -6.78125 L 1.84375 -2.46875 C 1.84375 -1.945312 1.972656 -1.554688 2.234375 -1.296875 C 2.503906 -1.035156 2.882812 -0.90625 3.375 -0.90625 C 3.863281 -0.90625 4.238281 -1.035156 4.5 -1.296875 C 4.769531 -1.554688 4.90625 -1.945312 4.90625 -2.46875 L 4.90625 -6.78125 L 6.03125 -6.78125 L 6.03125 -2.484375 C 6.03125 -1.929688 5.90625 -1.460938 5.65625 -1.078125 C 5.414062 -0.691406 5.09375 -0.40625 4.6875 -0.21875 C 4.289062 -0.03125 3.847656 0.0625 3.359375 0.0625 C 2.867188 0.0625 2.421875 -0.03125 2.015625 -0.21875 C 1.617188 -0.40625 1.300781 -0.691406 1.0625 -1.078125 C 0.832031 -1.460938 0.71875 -1.929688 0.71875 -2.484375 L 0.71875 -6.78125 Z M 1.84375 -6.78125 "/></g></g></g><g fill="#000000" fill-opacity="1"><g transform="translate(41.084238, 22.596128)"><g><path d="M 2.6875 0.09375 C 2.257812 0.09375 1.878906 0.015625 1.546875 -0.140625 C 1.210938 -0.296875 0.945312 -0.503906 0.75 -0.765625 C 0.550781 -1.023438 0.445312 -1.320312 0.4375 -1.65625 L 1.59375 -1.65625 C 1.613281 -1.425781 1.722656 -1.234375 1.921875 -1.078125 C 2.117188 -0.921875 2.367188 -0.84375 2.671875 -0.84375 C 2.984375 -0.84375 3.222656 -0.90625 3.390625 -1.03125 C 3.566406 -1.15625 3.65625 -1.3125 3.65625 -1.5 C 3.65625 -1.695312 3.554688 -1.84375 3.359375 -1.9375 C 3.171875 -2.039062 2.867188 -2.148438 2.453125 -2.265625 C 2.046875 -2.378906 1.710938 -2.488281 1.453125 -2.59375 C 1.203125 -2.695312 0.984375 -2.851562 0.796875 -3.0625 C 0.617188 -3.28125 0.53125 -3.566406 0.53125 -3.921875 C 0.53125 -4.203125 0.613281 -4.460938 0.78125 -4.703125 C 0.945312 -4.941406 1.1875 -5.128906 1.5 -5.265625 C 1.820312 -5.398438 2.1875 -5.46875 2.59375 -5.46875 C 3.207031 -5.46875 3.703125 -5.3125 4.078125 -5 C 4.453125 -4.695312 4.648438 -4.273438 4.671875 -3.734375 L 3.5625 -3.734375 C 3.539062 -3.984375 3.441406 -4.175781 3.265625 -4.3125 C 3.097656 -4.457031 2.863281 -4.53125 2.5625 -4.53125 C 2.269531 -4.53125 2.046875 -4.472656 1.890625 -4.359375 C 1.734375 -4.253906 1.65625 -4.109375 1.65625 -3.921875 C 1.65625 -3.785156 1.707031 -3.664062 1.8125 -3.5625 C 1.914062 -3.46875 2.039062 -3.390625 2.1875 -3.328125 C 2.332031 -3.273438 2.554688 -3.207031 2.859375 -3.125 C 3.242188 -3.019531 3.5625 -2.910156 3.8125 -2.796875 C 4.0625 -2.691406 4.273438 -2.535156 4.453125 -2.328125 C 4.640625 -2.117188 4.738281 -1.84375 4.75 -1.5 C 4.75 -1.195312 4.660156 -0.925781 4.484375 -0.6875 C 4.316406 -0.445312 4.078125 -0.253906 3.765625 -0.109375 C 3.460938 0.0234375 3.101562 0.09375 2.6875 0.09375 Z M 2.6875 0.09375 "/></g></g></g><g fill="#000000" fill-opacity="1"><g transform="translate(28.505915, 15.614726)"><g><path d="M 2.78125 0.0625 C 2.34375 0.0625 1.957031 -0.015625 1.625 -0.171875 C 1.289062 -0.328125 1.03125 -0.535156 0.84375 -0.796875 C 0.65625 -1.066406 0.550781 -1.363281 0.53125 -1.6875 L 0.984375 -1.6875 C 1.035156 -1.332031 1.203125 -1.015625 1.484375 -0.734375 C 1.773438 -0.453125 2.207031 -0.3125 2.78125 -0.3125 C 3.125 -0.3125 3.421875 -0.375 3.671875 -0.5 C 3.921875 -0.625 4.113281 -0.789062 4.25 -1 C 4.382812 -1.21875 4.453125 -1.457031 4.453125 -1.71875 C 4.453125 -2.050781 4.367188 -2.3125 4.203125 -2.5 C 4.046875 -2.695312 3.847656 -2.84375 3.609375 -2.9375 C 3.378906 -3.039062 3.0625 -3.148438 2.65625 -3.265625 C 2.21875 -3.378906 1.863281 -3.492188 1.59375 -3.609375 C 1.320312 -3.734375 1.09375 -3.914062 0.90625 -4.15625 C 0.71875 -4.394531 0.625 -4.726562 0.625 -5.15625 C 0.625 -5.476562 0.707031 -5.773438 0.875 -6.046875 C 1.050781 -6.316406 1.296875 -6.53125 1.609375 -6.6875 C 1.929688 -6.84375 2.300781 -6.921875 2.71875 -6.921875 C 3.332031 -6.921875 3.820312 -6.769531 4.1875 -6.46875 C 4.5625 -6.175781 4.785156 -5.8125 4.859375 -5.375 L 4.390625 -5.375 C 4.347656 -5.550781 4.257812 -5.726562 4.125 -5.90625 C 3.988281 -6.09375 3.796875 -6.242188 3.546875 -6.359375 C 3.304688 -6.484375 3.019531 -6.546875 2.6875 -6.546875 C 2.226562 -6.546875 1.84375 -6.421875 1.53125 -6.171875 C 1.21875 -5.921875 1.0625 -5.585938 1.0625 -5.171875 C 1.0625 -4.835938 1.140625 -4.570312 1.296875 -4.375 C 1.460938 -4.175781 1.664062 -4.023438 1.90625 -3.921875 C 2.144531 -3.816406 2.46875 -3.710938 2.875 -3.609375 C 3.320312 -3.484375 3.675781 -3.363281 3.9375 -3.25 C 4.207031 -3.144531 4.429688 -2.96875 4.609375 -2.71875 C 4.796875 -2.476562 4.890625 -2.148438 4.890625 -1.734375 C 4.890625 -1.421875 4.804688 -1.128906 4.640625 -0.859375 C 4.484375 -0.585938 4.242188 -0.363281 3.921875 -0.1875 C 3.609375 -0.0195312 3.226562 0.0625 2.78125 0.0625 Z M 2.78125 0.0625 "/></g></g></g><g fill="#000000" fill-opacity="1"><g transform="translate(32.959116, 15.614726)"><g><path d="M 1.03125 -6.484375 C 0.925781 -6.484375 0.835938 -6.515625 0.765625 -6.578125 C 0.691406 -6.648438 0.65625 -6.742188 0.65625 -6.859375 C 0.65625 -6.972656 0.691406 -7.066406 0.765625 -7.140625 C 0.835938 -7.210938 0.925781 -7.25 1.03125 -7.25 C 1.132812 -7.25 1.21875 -7.210938 1.28125 -7.140625 C 1.351562 -7.066406 1.390625 -6.972656 1.390625 -6.859375 C 1.390625 -6.742188 1.351562 -6.648438 1.28125 -6.578125 C 1.21875 -6.515625 1.132812 -6.484375 1.03125 -6.484375 Z M 1.234375 -5.296875 L 1.234375 0 L 0.796875 0 L 0.796875 -5.296875 Z M 1.234375 -5.296875 "/></g></g></g><g fill="#000000" fill-opacity="1"><g transform="translate(34.052787, 15.614726)"><g><path d="M 3.1875 -5.40625 C 3.820312 -5.40625 4.335938 -5.210938 4.734375 -4.828125 C 5.128906 -4.441406 5.328125 -3.867188 5.328125 -3.109375 L 5.328125 0 L 4.90625 0 L 4.90625 -3.078125 C 4.90625 -3.710938 4.742188 -4.195312 4.421875 -4.53125 C 4.109375 -4.863281 3.675781 -5.03125 3.125 -5.03125 C 2.550781 -5.03125 2.09375 -4.847656 1.75 -4.484375 C 1.40625 -4.117188 1.234375 -3.578125 1.234375 -2.859375 L 1.234375 0 L 0.796875 0 L 0.796875 -5.296875 L 1.234375 -5.296875 L 1.234375 -4.1875 C 1.390625 -4.582031 1.640625 -4.882812 1.984375 -5.09375 C 2.335938 -5.300781 2.738281 -5.40625 3.1875 -5.40625 Z M 3.1875 -5.40625 "/></g></g></g><g fill="#000000" fill-opacity="1"><g transform="translate(39.179848, 15.614726)"><g><path d="M 3.5625 0 L 1.234375 -2.4375 L 1.234375 0 L 0.796875 0 L 0.796875 -7.234375 L 1.234375 -7.234375 L 1.234375 -2.90625 L 3.515625 -5.296875 L 4.125 -5.296875 L 1.5625 -2.671875 L 4.15625 0 Z M 3.5625 0 "/></g></g></g><g fill="#000000" fill-opacity="1"><g transform="translate(42.490419, 15.614726)"><g><path d="M 2.5625 0.078125 C 1.976562 0.078125 1.5 -0.0507812 1.125 -0.3125 C 0.75 -0.570312 0.535156 -0.941406 0.484375 -1.421875 L 0.9375 -1.421875 C 0.96875 -1.078125 1.125 -0.800781 1.40625 -0.59375 C 1.695312 -0.394531 2.082031 -0.296875 2.5625 -0.296875 C 2.96875 -0.296875 3.289062 -0.398438 3.53125 -0.609375 C 3.769531 -0.816406 3.890625 -1.070312 3.890625 -1.375 C 3.890625 -1.582031 3.820312 -1.75 3.6875 -1.875 C 3.5625 -2.007812 3.40625 -2.113281 3.21875 -2.1875 C 3.03125 -2.257812 2.773438 -2.335938 2.453125 -2.421875 C 2.054688 -2.523438 1.738281 -2.625 1.5 -2.71875 C 1.257812 -2.820312 1.054688 -2.972656 0.890625 -3.171875 C 0.722656 -3.378906 0.640625 -3.65625 0.640625 -4 C 0.640625 -4.238281 0.710938 -4.460938 0.859375 -4.671875 C 1.003906 -4.890625 1.210938 -5.0625 1.484375 -5.1875 C 1.753906 -5.3125 2.054688 -5.375 2.390625 -5.375 C 2.941406 -5.375 3.390625 -5.234375 3.734375 -4.953125 C 4.078125 -4.679688 4.257812 -4.300781 4.28125 -3.8125 L 3.84375 -3.8125 C 3.820312 -4.164062 3.6875 -4.453125 3.4375 -4.671875 C 3.1875 -4.890625 2.835938 -5 2.390625 -5 C 2.003906 -5 1.6875 -4.898438 1.4375 -4.703125 C 1.195312 -4.515625 1.078125 -4.28125 1.078125 -4 C 1.078125 -3.75 1.144531 -3.546875 1.28125 -3.390625 C 1.425781 -3.242188 1.597656 -3.128906 1.796875 -3.046875 C 2.003906 -2.960938 2.28125 -2.875 2.625 -2.78125 C 2.988281 -2.6875 3.28125 -2.59375 3.5 -2.5 C 3.726562 -2.40625 3.921875 -2.265625 4.078125 -2.078125 C 4.234375 -1.898438 4.3125 -1.664062 4.3125 -1.375 C 4.3125 -1.09375 4.238281 -0.84375 4.09375 -0.625 C 3.945312 -0.40625 3.738281 -0.234375 3.46875 -0.109375 C 3.195312 0.015625 2.894531 0.078125 2.5625 0.078125 Z M 2.5625 0.078125 "/></g></g></g><g fill="#000000" fill-opacity="1"><g transform="translate(28.505915, 26.359696)"><g><path d="M 0.890625 -0.609375 L 0.890625 0 L 0.71875 0 L 0.71875 -0.609375 L 0 -1.765625 L 0.203125 -1.765625 L 0.8125 -0.78125 L 1.421875 -1.765625 L 1.609375 -1.765625 Z M 0.890625 -0.609375 "/></g></g></g><g fill="#000000" fill-opacity="1"><g transform="translate(30.111247, 26.359696)"><g><path d="M 1.0625 0.015625 C 0.882812 0.015625 0.722656 -0.0195312 0.578125 -0.09375 C 0.441406 -0.175781 0.332031 -0.285156 0.25 -0.421875 C 0.164062 -0.554688 0.125 -0.710938 0.125 -0.890625 C 0.125 -1.054688 0.164062 -1.207031 0.25 -1.34375 C 0.332031 -1.476562 0.441406 -1.582031 0.578125 -1.65625 C 0.722656 -1.738281 0.882812 -1.78125 1.0625 -1.78125 C 1.238281 -1.78125 1.394531 -1.738281 1.53125 -1.65625 C 1.675781 -1.582031 1.785156 -1.476562 1.859375 -1.34375 C 1.941406 -1.207031 1.984375 -1.054688 1.984375 -0.890625 C 1.984375 -0.710938 1.941406 -0.554688 1.859375 -0.421875 C 1.785156 -0.285156 1.675781 -0.175781 1.53125 -0.09375 C 1.394531 -0.0195312 1.238281 0.015625 1.0625 0.015625 Z M 1.0625 -0.15625 C 1.195312 -0.15625 1.320312 -0.1875 1.4375 -0.25 C 1.550781 -0.3125 1.640625 -0.394531 1.703125 -0.5 C 1.773438 -0.613281 1.8125 -0.742188 1.8125 -0.890625 C 1.8125 -1.023438 1.773438 -1.148438 1.703125 -1.265625 C 1.640625 -1.378906 1.550781 -1.46875 1.4375 -1.53125 C 1.320312 -1.59375 1.195312 -1.625 1.0625 -1.625 C 0.925781 -1.625 0.800781 -1.59375 0.6875 -1.53125 C 0.570312 -1.46875 0.476562 -1.378906 0.40625 -1.265625 C 0.34375 -1.148438 0.3125 -1.023438 0.3125 -0.890625 C 0.3125 -0.742188 0.34375 -0.613281 0.40625 -0.5 C 0.476562 -0.394531 0.570312 -0.3125 0.6875 -0.25 C 0.800781 -0.1875 0.925781 -0.15625 1.0625 -0.15625 Z M 1.0625 -0.15625 "/></g></g></g><g fill="#000000" fill-opacity="1"><g transform="translate(32.23231, 26.359696)"><g><path d="M 1 0.015625 C 0.769531 0.015625 0.585938 -0.046875 0.453125 -0.171875 C 0.328125 -0.304688 0.265625 -0.5 0.265625 -0.75 L 0.265625 -1.765625 L 0.453125 -1.765625 L 0.453125 -0.765625 C 0.453125 -0.554688 0.5 -0.398438 0.59375 -0.296875 C 0.6875 -0.203125 0.820312 -0.15625 1 -0.15625 C 1.175781 -0.15625 1.3125 -0.203125 1.40625 -0.296875 C 1.5 -0.398438 1.546875 -0.554688 1.546875 -0.765625 L 1.546875 -1.765625 L 1.734375 -1.765625 L 1.734375 -0.75 C 1.734375 -0.5 1.664062 -0.304688 1.53125 -0.171875 C 1.40625 -0.046875 1.226562 0.015625 1 0.015625 Z M 1 0.015625 "/></g></g></g><g fill="#000000" fill-opacity="1"><g transform="translate(34.234553, 26.359696)"><g><path d="M 1.5 0 L 1.09375 -0.5625 C 1.050781 -0.5625 1.003906 -0.5625 0.953125 -0.5625 L 0.46875 -0.5625 L 0.46875 0 L 0.28125 0 L 0.28125 -1.765625 L 0.953125 -1.765625 C 1.179688 -1.765625 1.359375 -1.710938 1.484375 -1.609375 C 1.609375 -1.503906 1.671875 -1.359375 1.671875 -1.171875 C 1.671875 -1.023438 1.632812 -0.90625 1.5625 -0.8125 C 1.5 -0.71875 1.398438 -0.648438 1.265625 -0.609375 L 1.703125 0 Z M 0.953125 -0.71875 C 1.117188 -0.71875 1.25 -0.753906 1.34375 -0.828125 C 1.4375 -0.910156 1.484375 -1.023438 1.484375 -1.171875 C 1.484375 -1.304688 1.4375 -1.410156 1.34375 -1.484375 C 1.25 -1.566406 1.117188 -1.609375 0.953125 -1.609375 L 0.46875 -1.609375 L 0.46875 -0.71875 Z M 0.953125 -0.71875 "/></g></g></g><g fill="#000000" fill-opacity="1"><g transform="translate(36.062357, 26.359696)"><g/></g></g><g fill="#000000" fill-opacity="1"><g transform="translate(36.937506, 26.359696)"><g><path d="M 1.0625 0.015625 C 0.882812 0.015625 0.722656 -0.0195312 0.578125 -0.09375 C 0.441406 -0.175781 0.332031 -0.285156 0.25 -0.421875 C 0.164062 -0.554688 0.125 -0.710938 0.125 -0.890625 C 0.125 -1.054688 0.164062 -1.207031 0.25 -1.34375 C 0.332031 -1.476562 0.441406 -1.582031 0.578125 -1.65625 C 0.722656 -1.738281 0.882812 -1.78125 1.0625 -1.78125 C 1.238281 -1.78125 1.394531 -1.738281 1.53125 -1.65625 C 1.675781 -1.582031 1.785156 -1.476562 1.859375 -1.34375 C 1.941406 -1.207031 1.984375 -1.054688 1.984375 -0.890625 C 1.984375 -0.710938 1.941406 -0.554688 1.859375 -0.421875 C 1.785156 -0.285156 1.675781 -0.175781 1.53125 -0.09375 C 1.394531 -0.0195312 1.238281 0.015625 1.0625 0.015625 Z M 1.0625 -0.15625 C 1.195312 -0.15625 1.320312 -0.1875 1.4375 -0.25 C 1.550781 -0.3125 1.640625 -0.394531 1.703125 -0.5 C 1.773438 -0.613281 1.8125 -0.742188 1.8125 -0.890625 C 1.8125 -1.023438 1.773438 -1.148438 1.703125 -1.265625 C 1.640625 -1.378906 1.550781 -1.46875 1.4375 -1.53125 C 1.320312 -1.59375 1.195312 -1.625 1.0625 -1.625 C 0.925781 -1.625 0.800781 -1.59375 0.6875 -1.53125 C 0.570312 -1.46875 0.476562 -1.378906 0.40625 -1.265625 C 0.34375 -1.148438 0.3125 -1.023438 0.3125 -0.890625 C 0.3125 -0.742188 0.34375 -0.613281 0.40625 -0.5 C 0.476562 -0.394531 0.570312 -0.3125 0.6875 -0.25 C 0.800781 -0.1875 0.925781 -0.15625 1.0625 -0.15625 Z M 1.0625 -0.15625 "/></g></g></g><g fill="#000000" fill-opacity="1"><g transform="translate(39.058569, 26.359696)"><g><path d="M 1.765625 -1.765625 L 1.765625 0 L 1.609375 0 L 0.46875 -1.4375 L 0.46875 0 L 0.28125 0 L 0.28125 -1.765625 L 0.4375 -1.765625 L 1.578125 -0.328125 L 1.578125 -1.765625 Z M 1.765625 -1.765625 "/></g></g></g><g fill="#000000" fill-opacity="1"><g transform="translate(41.113901, 26.359696)"><g><path d="M 1.546875 -0.15625 L 1.546875 0 L 0.28125 0 L 0.28125 -1.765625 L 1.5 -1.765625 L 1.5 -1.609375 L 0.46875 -1.609375 L 0.46875 -0.984375 L 1.390625 -0.984375 L 1.390625 -0.8125 L 0.46875 -0.8125 L 0.46875 -0.15625 Z M 1.546875 -0.15625 "/></g></g></g><g fill="#000000" fill-opacity="1"><g transform="translate(42.805189, 26.359696)"><g><path d="M 0.15625 -0.765625 L 0.8125 -0.765625 L 0.8125 -0.609375 L 0.15625 -0.609375 Z M 0.15625 -0.765625 "/></g></g></g><g fill="#000000" fill-opacity="1"><g transform="translate(43.770917, 26.359696)"><g><path d="M 0.78125 0.015625 C 0.644531 0.015625 0.515625 -0.00390625 0.390625 -0.046875 C 0.273438 -0.0859375 0.1875 -0.144531 0.125 -0.21875 L 0.1875 -0.359375 C 0.25 -0.296875 0.332031 -0.242188 0.4375 -0.203125 C 0.550781 -0.160156 0.664062 -0.140625 0.78125 -0.140625 C 0.9375 -0.140625 1.050781 -0.164062 1.125 -0.21875 C 1.207031 -0.28125 1.25 -0.359375 1.25 -0.453125 C 1.25 -0.523438 1.226562 -0.582031 1.1875 -0.625 C 1.144531 -0.664062 1.09375 -0.695312 1.03125 -0.71875 C 0.96875 -0.75 0.878906 -0.773438 0.765625 -0.796875 C 0.628906 -0.828125 0.519531 -0.859375 0.4375 -0.890625 C 0.363281 -0.921875 0.296875 -0.96875 0.234375 -1.03125 C 0.179688 -1.101562 0.15625 -1.191406 0.15625 -1.296875 C 0.15625 -1.390625 0.175781 -1.472656 0.21875 -1.546875 C 0.269531 -1.617188 0.34375 -1.675781 0.4375 -1.71875 C 0.539062 -1.757812 0.664062 -1.78125 0.8125 -1.78125 C 0.914062 -1.78125 1.015625 -1.765625 1.109375 -1.734375 C 1.210938 -1.710938 1.296875 -1.675781 1.359375 -1.625 L 1.296875 -1.484375 C 1.222656 -1.523438 1.144531 -1.554688 1.0625 -1.578125 C 0.976562 -1.609375 0.894531 -1.625 0.8125 -1.625 C 0.65625 -1.625 0.535156 -1.59375 0.453125 -1.53125 C 0.378906 -1.476562 0.34375 -1.40625 0.34375 -1.3125 C 0.34375 -1.238281 0.363281 -1.179688 0.40625 -1.140625 C 0.445312 -1.097656 0.5 -1.0625 0.5625 -1.03125 C 0.632812 -1.007812 0.722656 -0.988281 0.828125 -0.96875 C 0.960938 -0.925781 1.066406 -0.890625 1.140625 -0.859375 C 1.222656 -0.828125 1.289062 -0.78125 1.34375 -0.71875 C 1.40625 -0.65625 1.4375 -0.570312 1.4375 -0.46875 C 1.4375 -0.375 1.410156 -0.289062 1.359375 -0.21875 C 1.316406 -0.144531 1.242188 -0.0859375 1.140625 -0.046875 C 1.046875 -0.00390625 0.925781 0.015625 0.78125 0.015625 Z M 0.78125 0.015625 "/></g></g></g><g fill="#000000" fill-opacity="1"><g transform="translate(45.325688, 26.359696)"><g><path d="M 0.640625 -1.609375 L 0.015625 -1.609375 L 0.015625 -1.765625 L 1.4375 -1.765625 L 1.4375 -1.609375 L 0.8125 -1.609375 L 0.8125 0 L 0.640625 0 Z M 0.640625 -1.609375 "/></g></g></g><g fill="#000000" fill-opacity="1"><g transform="translate(46.776809, 26.359696)"><g><path d="M 1.0625 0.015625 C 0.882812 0.015625 0.722656 -0.0195312 0.578125 -0.09375 C 0.441406 -0.175781 0.332031 -0.285156 0.25 -0.421875 C 0.164062 -0.554688 0.125 -0.710938 0.125 -0.890625 C 0.125 -1.054688 0.164062 -1.207031 0.25 -1.34375 C 0.332031 -1.476562 0.441406 -1.582031 0.578125 -1.65625 C 0.722656 -1.738281 0.882812 -1.78125 1.0625 -1.78125 C 1.238281 -1.78125 1.394531 -1.738281 1.53125 -1.65625 C 1.675781 -1.582031 1.785156 -1.476562 1.859375 -1.34375 C 1.941406 -1.207031 1.984375 -1.054688 1.984375 -0.890625 C 1.984375 -0.710938 1.941406 -0.554688 1.859375 -0.421875 C 1.785156 -0.285156 1.675781 -0.175781 1.53125 -0.09375 C 1.394531 -0.0195312 1.238281 0.015625 1.0625 0.015625 Z M 1.0625 -0.15625 C 1.195312 -0.15625 1.320312 -0.1875 1.4375 -0.25 C 1.550781 -0.3125 1.640625 -0.394531 1.703125 -0.5 C 1.773438 -0.613281 1.8125 -0.742188 1.8125 -0.890625 C 1.8125 -1.023438 1.773438 -1.148438 1.703125 -1.265625 C 1.640625 -1.378906 1.550781 -1.46875 1.4375 -1.53125 C 1.320312 -1.59375 1.195312 -1.625 1.0625 -1.625 C 0.925781 -1.625 0.800781 -1.59375 0.6875 -1.53125 C 0.570312 -1.46875 0.476562 -1.378906 0.40625 -1.265625 C 0.34375 -1.148438 0.3125 -1.023438 0.3125 -0.890625 C 0.3125 -0.742188 0.34375 -0.613281 0.40625 -0.5 C 0.476562 -0.394531 0.570312 -0.3125 0.6875 -0.25 C 0.800781 -0.1875 0.925781 -0.15625 1.0625 -0.15625 Z M 1.0625 -0.15625 "/></g></g></g><g fill="#000000" fill-opacity="1"><g transform="translate(48.897872, 26.359696)"><g><path d="M 0.953125 -1.765625 C 1.179688 -1.765625 1.359375 -1.710938 1.484375 -1.609375 C 1.609375 -1.503906 1.671875 -1.359375 1.671875 -1.171875 C 1.671875 -0.972656 1.609375 -0.820312 1.484375 -0.71875 C 1.359375 -0.613281 1.179688 -0.5625 0.953125 -0.5625 L 0.46875 -0.5625 L 0.46875 0 L 0.28125 0 L 0.28125 -1.765625 Z M 0.953125 -0.71875 C 1.117188 -0.71875 1.25 -0.753906 1.34375 -0.828125 C 1.4375 -0.910156 1.484375 -1.023438 1.484375 -1.171875 C 1.484375 -1.304688 1.4375 -1.410156 1.34375 -1.484375 C 1.25 -1.566406 1.117188 -1.609375 0.953125 -1.609375 L 0.46875 -1.609375 L 0.46875 -0.71875 Z M 0.953125 -0.71875 "/></g></g></g><g fill="#000000" fill-opacity="1"><g transform="translate(50.713037, 26.359696)"><g/></g></g><g fill="#000000" fill-opacity="1"><g transform="translate(51.588186, 26.359696)"><g><path d="M 0.78125 0.015625 C 0.644531 0.015625 0.515625 -0.00390625 0.390625 -0.046875 C 0.273438 -0.0859375 0.1875 -0.144531 0.125 -0.21875 L 0.1875 -0.359375 C 0.25 -0.296875 0.332031 -0.242188 0.4375 -0.203125 C 0.550781 -0.160156 0.664062 -0.140625 0.78125 -0.140625 C 0.9375 -0.140625 1.050781 -0.164062 1.125 -0.21875 C 1.207031 -0.28125 1.25 -0.359375 1.25 -0.453125 C 1.25 -0.523438 1.226562 -0.582031 1.1875 -0.625 C 1.144531 -0.664062 1.09375 -0.695312 1.03125 -0.71875 C 0.96875 -0.75 0.878906 -0.773438 0.765625 -0.796875 C 0.628906 -0.828125 0.519531 -0.859375 0.4375 -0.890625 C 0.363281 -0.921875 0.296875 -0.96875 0.234375 -1.03125 C 0.179688 -1.101562 0.15625 -1.191406 0.15625 -1.296875 C 0.15625 -1.390625 0.175781 -1.472656 0.21875 -1.546875 C 0.269531 -1.617188 0.34375 -1.675781 0.4375 -1.71875 C 0.539062 -1.757812 0.664062 -1.78125 0.8125 -1.78125 C 0.914062 -1.78125 1.015625 -1.765625 1.109375 -1.734375 C 1.210938 -1.710938 1.296875 -1.675781 1.359375 -1.625 L 1.296875 -1.484375 C 1.222656 -1.523438 1.144531 -1.554688 1.0625 -1.578125 C 0.976562 -1.609375 0.894531 -1.625 0.8125 -1.625 C 0.65625 -1.625 0.535156 -1.59375 0.453125 -1.53125 C 0.378906 -1.476562 0.34375 -1.40625 0.34375 -1.3125 C 0.34375 -1.238281 0.363281 -1.179688 0.40625 -1.140625 C 0.445312 -1.097656 0.5 -1.0625 0.5625 -1.03125 C 0.632812 -1.007812 0.722656 -0.988281 0.828125 -0.96875 C 0.960938 -0.925781 1.066406 -0.890625 1.140625 -0.859375 C 1.222656 -0.828125 1.289062 -0.78125 1.34375 -0.71875 C 1.40625 -0.65625 1.4375 -0.570312 1.4375 -0.46875 C 1.4375 -0.375 1.410156 -0.289062 1.359375 -0.21875 C 1.316406 -0.144531 1.242188 -0.0859375 1.140625 -0.046875 C 1.046875 -0.00390625 0.925781 0.015625 0.78125 0.015625 Z M 0.78125 0.015625 "/></g></g></g><g fill="#000000" fill-opacity="1"><g transform="translate(53.142957, 26.359696)"><g><path d="M 1.765625 -1.765625 L 1.765625 0 L 1.578125 0 L 1.578125 -0.8125 L 0.46875 -0.8125 L 0.46875 0 L 0.28125 0 L 0.28125 -1.765625 L 0.46875 -1.765625 L 0.46875 -0.984375 L 1.578125 -0.984375 L 1.578125 -1.765625 Z M 1.765625 -1.765625 "/></g></g></g><g fill="#000000" fill-opacity="1"><g transform="translate(55.198289, 26.359696)"><g><path d="M 1.0625 0.015625 C 0.882812 0.015625 0.722656 -0.0195312 0.578125 -0.09375 C 0.441406 -0.175781 0.332031 -0.285156 0.25 -0.421875 C 0.164062 -0.554688 0.125 -0.710938 0.125 -0.890625 C 0.125 -1.054688 0.164062 -1.207031 0.25 -1.34375 C 0.332031 -1.476562 0.441406 -1.582031 0.578125 -1.65625 C 0.722656 -1.738281 0.882812 -1.78125 1.0625 -1.78125 C 1.238281 -1.78125 1.394531 -1.738281 1.53125 -1.65625 C 1.675781 -1.582031 1.785156 -1.476562 1.859375 -1.34375 C 1.941406 -1.207031 1.984375 -1.054688 1.984375 -0.890625 C 1.984375 -0.710938 1.941406 -0.554688 1.859375 -0.421875 C 1.785156 -0.285156 1.675781 -0.175781 1.53125 -0.09375 C 1.394531 -0.0195312 1.238281 0.015625 1.0625 0.015625 Z M 1.0625 -0.15625 C 1.195312 -0.15625 1.320312 -0.1875 1.4375 -0.25 C 1.550781 -0.3125 1.640625 -0.394531 1.703125 -0.5 C 1.773438 -0.613281 1.8125 -0.742188 1.8125 -0.890625 C 1.8125 -1.023438 1.773438 -1.148438 1.703125 -1.265625 C 1.640625 -1.378906 1.550781 -1.46875 1.4375 -1.53125 C 1.320312 -1.59375 1.195312 -1.625 1.0625 -1.625 C 0.925781 -1.625 0.800781 -1.59375 0.6875 -1.53125 C 0.570312 -1.46875 0.476562 -1.378906 0.40625 -1.265625 C 0.34375 -1.148438 0.3125 -1.023438 0.3125 -0.890625 C 0.3125 -0.742188 0.34375 -0.613281 0.40625 -0.5 C 0.476562 -0.394531 0.570312 -0.3125 0.6875 -0.25 C 0.800781 -0.1875 0.925781 -0.15625 1.0625 -0.15625 Z M 1.0625 -0.15625 "/></g></g></g><g fill="#000000" fill-opacity="1"><g transform="translate(57.319352, 26.359696)"><g><path d="M 0.953125 -1.765625 C 1.179688 -1.765625 1.359375 -1.710938 1.484375 -1.609375 C 1.609375 -1.503906 1.671875 -1.359375 1.671875 -1.171875 C 1.671875 -0.972656 1.609375 -0.820312 1.484375 -0.71875 C 1.359375 -0.613281 1.179688 -0.5625 0.953125 -0.5625 L 0.46875 -0.5625 L 0.46875 0 L 0.28125 0 L 0.28125 -1.765625 Z M 0.953125 -0.71875 C 1.117188 -0.71875 1.25 -0.753906 1.34375 -0.828125 C 1.4375 -0.910156 1.484375 -1.023438 1.484375 -1.171875 C 1.484375 -1.304688 1.4375 -1.410156 1.34375 -1.484375 C 1.25 -1.566406 1.117188 -1.609375 0.953125 -1.609375 L 0.46875 -1.609375 L 0.46875 -0.71875 Z M 0.953125 -0.71875 "/></g></g></g><g fill="#000000" fill-opacity="1"><g transform="translate(59.134518, 26.359696)"><g/></g></g><g fill="#000000" fill-opacity="1"><g transform="translate(60.009666, 26.359696)"><g><path d="M 0.46875 -1.609375 L 0.46875 -0.90625 L 1.390625 -0.90625 L 1.390625 -0.75 L 0.46875 -0.75 L 0.46875 0 L 0.28125 0 L 0.28125 -1.765625 L 1.5 -1.765625 L 1.5 -1.609375 Z M 0.46875 -1.609375 "/></g></g></g><g fill="#000000" fill-opacity="1"><g transform="translate(61.609942, 26.359696)"><g><path d="M 1.0625 0.015625 C 0.882812 0.015625 0.722656 -0.0195312 0.578125 -0.09375 C 0.441406 -0.175781 0.332031 -0.285156 0.25 -0.421875 C 0.164062 -0.554688 0.125 -0.710938 0.125 -0.890625 C 0.125 -1.054688 0.164062 -1.207031 0.25 -1.34375 C 0.332031 -1.476562 0.441406 -1.582031 0.578125 -1.65625 C 0.722656 -1.738281 0.882812 -1.78125 1.0625 -1.78125 C 1.238281 -1.78125 1.394531 -1.738281 1.53125 -1.65625 C 1.675781 -1.582031 1.785156 -1.476562 1.859375 -1.34375 C 1.941406 -1.207031 1.984375 -1.054688 1.984375 -0.890625 C 1.984375 -0.710938 1.941406 -0.554688 1.859375 -0.421875 C 1.785156 -0.285156 1.675781 -0.175781 1.53125 -0.09375 C 1.394531 -0.0195312 1.238281 0.015625 1.0625 0.015625 Z M 1.0625 -0.15625 C 1.195312 -0.15625 1.320312 -0.1875 1.4375 -0.25 C 1.550781 -0.3125 1.640625 -0.394531 1.703125 -0.5 C 1.773438 -0.613281 1.8125 -0.742188 1.8125 -0.890625 C 1.8125 -1.023438 1.773438 -1.148438 1.703125 -1.265625 C 1.640625 -1.378906 1.550781 -1.46875 1.4375 -1.53125 C 1.320312 -1.59375 1.195312 -1.625 1.0625 -1.625 C 0.925781 -1.625 0.800781 -1.59375 0.6875 -1.53125 C 0.570312 -1.46875 0.476562 -1.378906 0.40625 -1.265625 C 0.34375 -1.148438 0.3125 -1.023438 0.3125 -0.890625 C 0.3125 -0.742188 0.34375 -0.613281 0.40625 -0.5 C 0.476562 -0.394531 0.570312 -0.3125 0.6875 -0.25 C 0.800781 -0.1875 0.925781 -0.15625 1.0625 -0.15625 Z M 1.0625 -0.15625 "/></g></g></g><g fill="#000000" fill-opacity="1"><g transform="translate(63.731005, 26.359696)"><g><path d="M 1.5 0 L 1.09375 -0.5625 C 1.050781 -0.5625 1.003906 -0.5625 0.953125 -0.5625 L 0.46875 -0.5625 L 0.46875 0 L 0.28125 0 L 0.28125 -1.765625 L 0.953125 -1.765625 C 1.179688 -1.765625 1.359375 -1.710938 1.484375 -1.609375 C 1.609375 -1.503906 1.671875 -1.359375 1.671875 -1.171875 C 1.671875 -1.023438 1.632812 -0.90625 1.5625 -0.8125 C 1.5 -0.71875 1.398438 -0.648438 1.265625 -0.609375 L 1.703125 0 Z M 0.953125 -0.71875 C 1.117188 -0.71875 1.25 -0.753906 1.34375 -0.828125 C 1.4375 -0.910156 1.484375 -1.023438 1.484375 -1.171875 C 1.484375 -1.304688 1.4375 -1.410156 1.34375 -1.484375 C 1.25 -1.566406 1.117188 -1.609375 0.953125 -1.609375 L 0.46875 -1.609375 L 0.46875 -0.71875 Z M 0.953125 -0.71875 "/></g></g></g><g fill="#000000" fill-opacity="1"><g transform="translate(65.55881, 26.359696)"><g/></g></g><g fill="#000000" fill-opacity="1"><g transform="translate(66.433958, 26.359696)"><g><path d="M 1.40625 -0.46875 L 0.40625 -0.46875 L 0.203125 0 L 0 0 L 0.8125 -1.765625 L 1 -1.765625 L 1.8125 0 L 1.609375 0 Z M 1.328125 -0.625 L 0.90625 -1.578125 L 0.484375 -0.625 Z M 1.328125 -0.625 "/></g></g></g><g fill="#000000" fill-opacity="1"><g transform="translate(68.246593, 26.359696)"><g><path d="M 0.28125 -1.765625 L 0.46875 -1.765625 L 0.46875 -0.15625 L 1.46875 -0.15625 L 1.46875 0 L 0.28125 0 Z M 0.28125 -1.765625 "/></g></g></g><g fill="#000000" fill-opacity="1"><g transform="translate(69.735633, 26.359696)"><g><path d="M 0.28125 -1.765625 L 0.46875 -1.765625 L 0.46875 -0.15625 L 1.46875 -0.15625 L 1.46875 0 L 0.28125 0 Z M 0.28125 -1.765625 "/></g></g></g><g fill="#000000" fill-opacity="1"><g transform="translate(28.505915, 29.815144)"><g><path d="M 0.640625 -1.609375 L 0.015625 -1.609375 L 0.015625 -1.765625 L 1.4375 -1.765625 L 1.4375 -1.609375 L 0.8125 -1.609375 L 0.8125 0 L 0.640625 0 Z M 0.640625 -1.609375 "/></g></g></g><g fill="#000000" fill-opacity="1"><g transform="translate(29.957036, 29.815144)"><g><path d="M 0.890625 -0.609375 L 0.890625 0 L 0.71875 0 L 0.71875 -0.609375 L 0 -1.765625 L 0.203125 -1.765625 L 0.8125 -0.78125 L 1.421875 -1.765625 L 1.609375 -1.765625 Z M 0.890625 -0.609375 "/></g></g></g><g fill="#000000" fill-opacity="1"><g transform="translate(31.562367, 29.815144)"><g><path d="M 0.953125 -1.765625 C 1.179688 -1.765625 1.359375 -1.710938 1.484375 -1.609375 C 1.609375 -1.503906 1.671875 -1.359375 1.671875 -1.171875 C 1.671875 -0.972656 1.609375 -0.820312 1.484375 -0.71875 C 1.359375 -0.613281 1.179688 -0.5625 0.953125 -0.5625 L 0.46875 -0.5625 L 0.46875 0 L 0.28125 0 L 0.28125 -1.765625 Z M 0.953125 -0.71875 C 1.117188 -0.71875 1.25 -0.753906 1.34375 -0.828125 C 1.4375 -0.910156 1.484375 -1.023438 1.484375 -1.171875 C 1.484375 -1.304688 1.4375 -1.410156 1.34375 -1.484375 C 1.25 -1.566406 1.117188 -1.609375 0.953125 -1.609375 L 0.46875 -1.609375 L 0.46875 -0.71875 Z M 0.953125 -0.71875 "/></g></g></g><g fill="#000000" fill-opacity="1"><g transform="translate(33.377533, 29.815144)"><g><path d="M 1.546875 -0.15625 L 1.546875 0 L 0.28125 0 L 0.28125 -1.765625 L 1.5 -1.765625 L 1.5 -1.609375 L 0.46875 -1.609375 L 0.46875 -0.984375 L 1.390625 -0.984375 L 1.390625 -0.8125 L 0.46875 -0.8125 L 0.46875 -0.15625 Z M 1.546875 -0.15625 "/></g></g></g><g fill="#000000" fill-opacity="1"><g transform="translate(35.06882, 29.815144)"><g><path d="M 0.78125 0.015625 C 0.644531 0.015625 0.515625 -0.00390625 0.390625 -0.046875 C 0.273438 -0.0859375 0.1875 -0.144531 0.125 -0.21875 L 0.1875 -0.359375 C 0.25 -0.296875 0.332031 -0.242188 0.4375 -0.203125 C 0.550781 -0.160156 0.664062 -0.140625 0.78125 -0.140625 C 0.9375 -0.140625 1.050781 -0.164062 1.125 -0.21875 C 1.207031 -0.28125 1.25 -0.359375 1.25 -0.453125 C 1.25 -0.523438 1.226562 -0.582031 1.1875 -0.625 C 1.144531 -0.664062 1.09375 -0.695312 1.03125 -0.71875 C 0.96875 -0.75 0.878906 -0.773438 0.765625 -0.796875 C 0.628906 -0.828125 0.519531 -0.859375 0.4375 -0.890625 C 0.363281 -0.921875 0.296875 -0.96875 0.234375 -1.03125 C 0.179688 -1.101562 0.15625 -1.191406 0.15625 -1.296875 C 0.15625 -1.390625 0.175781 -1.472656 0.21875 -1.546875 C 0.269531 -1.617188 0.34375 -1.675781 0.4375 -1.71875 C 0.539062 -1.757812 0.664062 -1.78125 0.8125 -1.78125 C 0.914062 -1.78125 1.015625 -1.765625 1.109375 -1.734375 C 1.210938 -1.710938 1.296875 -1.675781 1.359375 -1.625 L 1.296875 -1.484375 C 1.222656 -1.523438 1.144531 -1.554688 1.0625 -1.578125 C 0.976562 -1.609375 0.894531 -1.625 0.8125 -1.625 C 0.65625 -1.625 0.535156 -1.59375 0.453125 -1.53125 C 0.378906 -1.476562 0.34375 -1.40625 0.34375 -1.3125 C 0.34375 -1.238281 0.363281 -1.179688 0.40625 -1.140625 C 0.445312 -1.097656 0.5 -1.0625 0.5625 -1.03125 C 0.632812 -1.007812 0.722656 -0.988281 0.828125 -0.96875 C 0.960938 -0.925781 1.066406 -0.890625 1.140625 -0.859375 C 1.222656 -0.828125 1.289062 -0.78125 1.34375 -0.71875 C 1.40625 -0.65625 1.4375 -0.570312 1.4375 -0.46875 C 1.4375 -0.375 1.410156 -0.289062 1.359375 -0.21875 C 1.316406 -0.144531 1.242188 -0.0859375 1.140625 -0.046875 C 1.046875 -0.00390625 0.925781 0.015625 0.78125 0.015625 Z M 0.78125 0.015625 "/></g></g></g><g fill="#000000" fill-opacity="1"><g transform="translate(36.623591, 29.815144)"><g/></g></g><g fill="#000000" fill-opacity="1"><g transform="translate(37.28595, 29.815144)"><g><path d="M 1.0625 0.015625 C 0.882812 0.015625 0.722656 -0.0195312 0.578125 -0.09375 C 0.441406 -0.175781 0.332031 -0.285156 0.25 -0.421875 C 0.164062 -0.554688 0.125 -0.710938 0.125 -0.890625 C 0.125 -1.054688 0.164062 -1.207031 0.25 -1.34375 C 0.332031 -1.476562 0.441406 -1.582031 0.578125 -1.65625 C 0.722656 -1.738281 0.882812 -1.78125 1.0625 -1.78125 C 1.238281 -1.78125 1.394531 -1.738281 1.53125 -1.65625 C 1.675781 -1.582031 1.785156 -1.476562 1.859375 -1.34375 C 1.941406 -1.207031 1.984375 -1.054688 1.984375 -0.890625 C 1.984375 -0.710938 1.941406 -0.554688 1.859375 -0.421875 C 1.785156 -0.285156 1.675781 -0.175781 1.53125 -0.09375 C 1.394531 -0.0195312 1.238281 0.015625 1.0625 0.015625 Z M 1.0625 -0.15625 C 1.195312 -0.15625 1.320312 -0.1875 1.4375 -0.25 C 1.550781 -0.3125 1.640625 -0.394531 1.703125 -0.5 C 1.773438 -0.613281 1.8125 -0.742188 1.8125 -0.890625 C 1.8125 -1.023438 1.773438 -1.148438 1.703125 -1.265625 C 1.640625 -1.378906 1.550781 -1.46875 1.4375 -1.53125 C 1.320312 -1.59375 1.195312 -1.625 1.0625 -1.625 C 0.925781 -1.625 0.800781 -1.59375 0.6875 -1.53125 C 0.570312 -1.46875 0.476562 -1.378906 0.40625 -1.265625 C 0.34375 -1.148438 0.3125 -1.023438 0.3125 -0.890625 C 0.3125 -0.742188 0.34375 -0.613281 0.40625 -0.5 C 0.476562 -0.394531 0.570312 -0.3125 0.6875 -0.25 C 0.800781 -0.1875 0.925781 -0.15625 1.0625 -0.15625 Z M 1.0625 -0.15625 "/></g></g></g><g fill="#000000" fill-opacity="1"><g transform="translate(39.407013, 29.815144)"><g><path d="M 0.46875 -1.609375 L 0.46875 -0.90625 L 1.390625 -0.90625 L 1.390625 -0.75 L 0.46875 -0.75 L 0.46875 0 L 0.28125 0 L 0.28125 -1.765625 L 1.5 -1.765625 L 1.5 -1.609375 Z M 0.46875 -1.609375 "/></g></g></g><g fill="#000000" fill-opacity="1"><g transform="translate(41.007289, 29.815144)"><g/></g></g><g fill="#000000" fill-opacity="1"><g transform="translate(41.669648, 29.815144)"><g><path d="M 0.78125 0.015625 C 0.644531 0.015625 0.515625 -0.00390625 0.390625 -0.046875 C 0.273438 -0.0859375 0.1875 -0.144531 0.125 -0.21875 L 0.1875 -0.359375 C 0.25 -0.296875 0.332031 -0.242188 0.4375 -0.203125 C 0.550781 -0.160156 0.664062 -0.140625 0.78125 -0.140625 C 0.9375 -0.140625 1.050781 -0.164062 1.125 -0.21875 C 1.207031 -0.28125 1.25 -0.359375 1.25 -0.453125 C 1.25 -0.523438 1.226562 -0.582031 1.1875 -0.625 C 1.144531 -0.664062 1.09375 -0.695312 1.03125 -0.71875 C 0.96875 -0.75 0.878906 -0.773438 0.765625 -0.796875 C 0.628906 -0.828125 0.519531 -0.859375 0.4375 -0.890625 C 0.363281 -0.921875 0.296875 -0.96875 0.234375 -1.03125 C 0.179688 -1.101562 0.15625 -1.191406 0.15625 -1.296875 C 0.15625 -1.390625 0.175781 -1.472656 0.21875 -1.546875 C 0.269531 -1.617188 0.34375 -1.675781 0.4375 -1.71875 C 0.539062 -1.757812 0.664062 -1.78125 0.8125 -1.78125 C 0.914062 -1.78125 1.015625 -1.765625 1.109375 -1.734375 C 1.210938 -1.710938 1.296875 -1.675781 1.359375 -1.625 L 1.296875 -1.484375 C 1.222656 -1.523438 1.144531 -1.554688 1.0625 -1.578125 C 0.976562 -1.609375 0.894531 -1.625 0.8125 -1.625 C 0.65625 -1.625 0.535156 -1.59375 0.453125 -1.53125 C 0.378906 -1.476562 0.34375 -1.40625 0.34375 -1.3125 C 0.34375 -1.238281 0.363281 -1.179688 0.40625 -1.140625 C 0.445312 -1.097656 0.5 -1.0625 0.5625 -1.03125 C 0.632812 -1.007812 0.722656 -0.988281 0.828125 -0.96875 C 0.960938 -0.925781 1.066406 -0.890625 1.140625 -0.859375 C 1.222656 -0.828125 1.289062 -0.78125 1.34375 -0.71875 C 1.40625 -0.65625 1.4375 -0.570312 1.4375 -0.46875 C 1.4375 -0.375 1.410156 -0.289062 1.359375 -0.21875 C 1.316406 -0.144531 1.242188 -0.0859375 1.140625 -0.046875 C 1.046875 -0.00390625 0.925781 0.015625 0.78125 0.015625 Z M 0.78125 0.015625 "/></g></g></g><g fill="#000000" fill-opacity="1"><g transform="translate(43.224419, 29.815144)"><g><path d="M 0.28125 -1.765625 L 0.46875 -1.765625 L 0.46875 0 L 0.28125 0 Z M 0.28125 -1.765625 "/></g></g></g><g fill="#000000" fill-opacity="1"><g transform="translate(43.9879, 29.815144)"><g><path d="M 1.765625 -1.765625 L 1.765625 0 L 1.609375 0 L 0.46875 -1.4375 L 0.46875 0 L 0.28125 0 L 0.28125 -1.765625 L 0.4375 -1.765625 L 1.578125 -0.328125 L 1.578125 -1.765625 Z M 1.765625 -1.765625 "/></g></g></g><g fill="#000000" fill-opacity="1"><g transform="translate(46.043233, 29.815144)"><g><path d="M 0.84375 -0.828125 L 0.46875 -0.46875 L 0.46875 0 L 0.28125 0 L 0.28125 -1.765625 L 0.46875 -1.765625 L 0.46875 -0.703125 L 1.515625 -1.765625 L 1.734375 -1.765625 L 0.96875 -0.96875 L 1.78125 0 L 1.5625 0 Z M 0.84375 -0.828125 "/></g></g></g><g fill="#000000" fill-opacity="1"><g transform="translate(47.840701, 29.815144)"><g><path d="M 0.78125 0.015625 C 0.644531 0.015625 0.515625 -0.00390625 0.390625 -0.046875 C 0.273438 -0.0859375 0.1875 -0.144531 0.125 -0.21875 L 0.1875 -0.359375 C 0.25 -0.296875 0.332031 -0.242188 0.4375 -0.203125 C 0.550781 -0.160156 0.664062 -0.140625 0.78125 -0.140625 C 0.9375 -0.140625 1.050781 -0.164062 1.125 -0.21875 C 1.207031 -0.28125 1.25 -0.359375 1.25 -0.453125 C 1.25 -0.523438 1.226562 -0.582031 1.1875 -0.625 C 1.144531 -0.664062 1.09375 -0.695312 1.03125 -0.71875 C 0.96875 -0.75 0.878906 -0.773438 0.765625 -0.796875 C 0.628906 -0.828125 0.519531 -0.859375 0.4375 -0.890625 C 0.363281 -0.921875 0.296875 -0.96875 0.234375 -1.03125 C 0.179688 -1.101562 0.15625 -1.191406 0.15625 -1.296875 C 0.15625 -1.390625 0.175781 -1.472656 0.21875 -1.546875 C 0.269531 -1.617188 0.34375 -1.675781 0.4375 -1.71875 C 0.539062 -1.757812 0.664062 -1.78125 0.8125 -1.78125 C 0.914062 -1.78125 1.015625 -1.765625 1.109375 -1.734375 C 1.210938 -1.710938 1.296875 -1.675781 1.359375 -1.625 L 1.296875 -1.484375 C 1.222656 -1.523438 1.144531 -1.554688 1.0625 -1.578125 C 0.976562 -1.609375 0.894531 -1.625 0.8125 -1.625 C 0.65625 -1.625 0.535156 -1.59375 0.453125 -1.53125 C 0.378906 -1.476562 0.34375 -1.40625 0.34375 -1.3125 C 0.34375 -1.238281 0.363281 -1.179688 0.40625 -1.140625 C 0.445312 -1.097656 0.5 -1.0625 0.5625 -1.03125 C 0.632812 -1.007812 0.722656 -0.988281 0.828125 -0.96875 C 0.960938 -0.925781 1.066406 -0.890625 1.140625 -0.859375 C 1.222656 -0.828125 1.289062 -0.78125 1.34375 -0.71875 C 1.40625 -0.65625 1.4375 -0.570312 1.4375 -0.46875 C 1.4375 -0.375 1.410156 -0.289062 1.359375 -0.21875 C 1.316406 -0.144531 1.242188 -0.0859375 1.140625 -0.046875 C 1.046875 -0.00390625 0.925781 0.015625 0.78125 0.015625 Z M 0.78125 0.015625 "/></g></g></g><path fill="#000000" d="M 14.449219 20.101562 C 14.449219 19.484375 14.949219 18.984375 15.566406 18.984375 C 16.179688 18.984375 16.679688 19.484375 16.679688 20.101562 C 16.679688 20.714844 16.179688 21.214844 15.566406 21.214844 C 14.949219 21.214844 14.449219 20.714844 14.449219 20.101562 Z M 14.449219 20.101562 " fill-opacity="1" fill-rule="nonzero"/><path fill="#000000" d="M 16.679688 23.375 C 16.679688 23.078125 16.796875 22.796875 17.007812 22.585938 L 18.058594 21.535156 C 18.269531 21.324219 18.550781 21.207031 18.847656 21.207031 C 19.144531 21.207031 19.425781 21.324219 19.636719 21.535156 L 21.824219 23.722656 L 23.371094 22.175781 L 23.371094 10.988281 C 23.371094 10.769531 23.277344 10.566406 23.113281 10.421875 C 22.957031 10.28125 22.742188 10.214844 22.535156 10.246094 C 13.800781 11.476562 6.9375 18.335938 5.710938 27.070312 C 5.679688 27.28125 5.746094 27.492188 5.886719 27.648438 C 6.03125 27.8125 6.234375 27.90625 6.453125 27.90625 L 17.640625 27.90625 L 19.195312 26.351562 L 17.007812 24.164062 C 16.796875 23.953125 16.679688 23.671875 16.679688 23.375 Z M 13.707031 20.101562 C 13.707031 19.074219 14.539062 18.242188 15.566406 18.242188 C 16.59375 18.242188 17.425781 19.074219 17.425781 20.101562 C 17.425781 21.128906 16.59375 21.960938 15.566406 21.960938 C 14.539062 21.957031 13.707031 21.125 13.707031 20.101562 Z M 13.707031 20.101562 " fill-opacity="1" fill-rule="nonzero"/><path fill="#000000" d="M 19.109375 22.058594 C 18.964844 21.917969 18.730469 21.917969 18.585938 22.058594 L 17.53125 23.113281 C 17.464844 23.179688 17.425781 23.277344 17.425781 23.375 C 17.425781 23.472656 17.464844 23.566406 17.53125 23.636719 L 21.476562 27.582031 C 21.910156 28.015625 22.617188 28.015625 23.054688 27.582031 C 23.488281 27.144531 23.488281 26.4375 23.054688 26.003906 Z M 19.109375 22.058594 " fill-opacity="1" fill-rule="nonzero"/><g clip-path="url(#f2def030b7)"><path fill="#000000" d="M 22.324219 8.398438 C 12.722656 9.710938 5.175781 17.257812 3.863281 26.855469 C 3.773438 27.597656 4.003906 28.339844 4.496094 28.898438 C 4.992188 29.453125 5.703125 29.769531 6.449219 29.765625 L 24.117188 29.765625 C 24.730469 29.765625 25.230469 29.265625 25.230469 28.652344 L 25.230469 10.984375 C 25.234375 10.238281 24.917969 9.527344 24.363281 9.03125 C 23.804688 8.539062 23.0625 8.308594 22.324219 8.398438 Z M 23.578125 28.105469 C 22.851562 28.832031 21.675781 28.832031 20.949219 28.105469 L 19.722656 26.878906 L 18.058594 28.542969 C 17.988281 28.613281 17.894531 28.652344 17.796875 28.652344 L 6.453125 28.652344 C 6.023438 28.652344 5.613281 28.464844 5.328125 28.140625 C 5.046875 27.820312 4.917969 27.390625 4.972656 26.96875 C 6.25 17.90625 13.371094 10.785156 22.433594 9.507812 C 22.855469 9.453125 23.285156 9.582031 23.605469 9.863281 C 23.929688 10.148438 24.117188 10.558594 24.117188 10.988281 L 24.117188 22.332031 C 24.117188 22.429688 24.078125 22.523438 24.007812 22.59375 L 22.351562 24.25 L 23.578125 25.476562 C 24.304688 26.203125 24.304688 27.378906 23.578125 28.105469 Z M 23.578125 28.105469 " fill-opacity="1" fill-rule="nonzero"/></g><path stroke-linecap="butt" transform="matrix(0, 0.740132, -0.740132, 0, 27.182597, 7.903883)" fill="none" stroke-linejoin="miter" d="M -0.0020798 0.500042 L 30.23431 0.500042 " stroke="#000000" stroke-width="1" stroke-opacity="1" stroke-miterlimit="4"/></svg>    